<svg xmlns="http://www.w3.org/2000/svg" viewBox="0 0 512 512"><path d="M304.097 7.499c8.016 48.097-16.032 72.145-16.032 72.145l-16.032-16.032c-21.042 36.574-76.153 43.087-83.668 104.21h204.822c-1.503-118.74-89.09-160.323-89.09-160.323z" fill="#ffc850"/><g fill="#fff"><path d="M320.13 95.676c-20.708 41.417-58.785 33.735-80.161 72.145h112.226c-3.675-48.096-32.065-72.145-32.065-72.145zM143.775 199.886c0 70.835 68.19 128.258 152.306 128.258 84.117 0 152.306-57.423 152.306-128.258H143.775zM448.388 167.821H143.775c-8.854 0-16.032 7.178-16.032 16.032s7.178 16.032 16.032 16.032h304.613c8.854 0 16.032-7.178 16.032-16.032s-7.179-16.032-16.032-16.032z"/></g><circle cx="195.88" cy="476.439" r="28.06" fill="#e4eaf8"/><circle cx="63.61" cy="223.939" r="16.03" fill="#ff8031"/><circle cx="195.88" cy="476.439" r="8.02" fill="#fff"/><path d="M225.395 223.934H445.62c1.757-7.797 2.767-15.82 2.767-24.048H143.775c0 62.763 53.569 114.906 124.281 125.996-30.874-19.822-52.56-49.274-58.508-83.081-1.73-9.831 5.866-18.867 15.847-18.867z" fill="#abffdb"/><g fill="#474d54"><path d="M471.92 183.854c0-12.976-10.557-23.532-23.532-23.532H143.775c-12.976 0-23.533 10.557-23.533 23.532 0 10.42 6.81 19.275 16.212 22.36.187 3.441.526 6.85 1.01 10.22H85.913c-3.139-9.308-11.946-16.032-22.3-16.032-12.976 0-23.532 10.557-23.532 23.532 0 12.976 10.557 23.532 23.532 23.532 10.353 0 19.16-6.724 22.3-16.032h54.728c10.642 37.841 39.979 69.585 79.23 87.753l-23.407 121.714c-.195-.003-.389-.015-.585-.015-19.606 0-35.556 15.95-35.556 35.556s15.95 35.557 35.556 35.557 35.557-15.951 35.557-35.557c0-14.168-8.332-26.424-20.352-32.134l3.94-20.487h162.115l15.787 82.094a7.502 7.502 0 008.782 5.949 7.501 7.501 0 005.949-8.782l-35.365-183.895c47.704-22.08 80.77-64.211 83.417-112.973 9.401-3.086 16.211-11.94 16.211-22.36zM63.613 232.467c-4.705 0-8.532-3.828-8.532-8.532s3.828-8.532 8.532-8.532 8.532 3.828 8.532 8.532c.001 4.704-3.827 8.532-8.532 8.532zM195.88 496.999c-11.334 0-20.556-9.222-20.556-20.557 0-11.335 9.222-20.556 20.556-20.556 11.335 0 20.557 9.222 20.557 20.556-.001 11.335-9.222 20.557-20.557 20.557zm178.374-88.177H217.909l16.121-83.831c19.088 6.858 40.057 10.653 62.051 10.653s42.964-3.795 62.051-10.653l16.122 83.831zm74.134-216.436H416.32a7.5 7.5 0 000 15h24.28c-3.039 41.153-30.902 76.792-71.23 96.61l-1.795-9.333a7.501 7.501 0 00-14.731 2.833l2.422 12.593c-18.079 6.779-38.113 10.555-59.185 10.555s-41.107-3.776-59.185-10.555l2.422-12.593a7.5 7.5 0 10-14.731-2.833l-1.795 9.333c-40.327-19.818-68.19-55.457-71.23-96.61h232.7a7.5 7.5 0 000-15H143.775c-4.705 0-8.533-3.828-8.533-8.532 0-4.705 3.828-8.532 8.533-8.532h304.613c4.705 0 8.532 3.828 8.532 8.532s-3.828 8.532-8.532 8.532zM196.627 142.511a7.463 7.463 0 003.255.748 7.5 7.5 0 006.759-4.241c6.419-13.294 18.364-22.34 32.196-32.814 11.261-8.527 23.794-18.018 34.119-31.062l9.805 9.805a7.5 7.5 0 0010.607 0c.975-.974 21.397-21.945 19.782-62.811 20.339 14.693 59.482 50.621 69.714 114.802a7.5 7.5 0 0014.813-2.361c-7.897-49.536-31.871-83.196-50.592-102.71-20.36-21.223-38.833-30.671-39.609-31.063a7.499 7.499 0 00-10.777 7.929c5.109 30.652-3.579 50.352-9.388 59.552l-9.975-9.975a7.497 7.497 0 00-11.583 1.202c-9.686 14.833-23.048 24.95-35.97 34.735-14.739 11.16-28.66 21.701-36.649 38.251a7.498 7.498 0 003.493 10.013z"/></g><path d="M323.273 88.866a7.501 7.501 0 00-9.878 3.508c-11.255 22.961-36.6 36.618-36.854 36.753a7.499 7.499 0 00-3.126 10.127 7.498 7.498 0 0010.132 3.136c1.097-.579 24.626-13.177 39.065-35.857 5.416 4.773 13.392 14.267 17.635 31.06a7.504 7.504 0 009.109 5.435 7.5 7.5 0 005.434-9.109c-8.628-34.141-30.587-44.623-31.517-45.053z" fill="#ff8031"/></svg>